<?xml version="1.0" encoding="UTF-8" standalone="no"?>
<!-- Created with Inkscape (http://www.inkscape.org/) -->

<svg
   width="512"
   height="512"
   viewBox="0 0 512 512"
   version="1.1"
   id="svg1"
   xml:space="preserve"
   inkscape:export-filename="256.png"
   inkscape:export-xdpi="48"
   inkscape:export-ydpi="48"
   inkscape:version="1.4 (86a8ad7, 2024-10-11)"
   sodipodi:docname="icon.svg"
   xmlns:inkscape="http://www.inkscape.org/namespaces/inkscape"
   xmlns:sodipodi="http://sodipodi.sourceforge.net/DTD/sodipodi-0.dtd"
   xmlns="http://www.w3.org/2000/svg"
   xmlns:svg="http://www.w3.org/2000/svg"><sodipodi:namedview
     id="namedview1"
     pagecolor="#ffffff"
     bordercolor="#000000"
     borderopacity="0.25"
     inkscape:showpageshadow="2"
     inkscape:pageopacity="0.0"
     inkscape:pagecheckerboard="0"
     inkscape:deskcolor="#d1d1d1"
     inkscape:document-units="px"
     inkscape:zoom="1.6621094"
     inkscape:cx="218.698"
     inkscape:cy="240.35723"
     inkscape:window-width="1920"
     inkscape:window-height="1111"
     inkscape:window-x="-9"
     inkscape:window-y="-9"
     inkscape:window-maximized="1"
     inkscape:current-layer="layer3" /><defs
     id="defs1"><rect
       x="129.95535"
       y="303.22914"
       width="658.19977"
       height="81.222095"
       id="rect9" /><style
       id="style1">.cls-1{fill:#101010;}</style></defs><g
     inkscape:groupmode="layer"
     id="layer3"
     inkscape:label="Nee 1"><path
       id="rect10"
       style="fill:#ffffff;fill-opacity:1;stroke-width:0.5;stroke-linecap:round;stroke-linejoin:bevel;stroke-miterlimit:12;paint-order:stroke fill markers"
       d="M 129.3418 22.261719 C 106.27614 22.261719 87.707031 40.830828 87.707031 63.896484 L 87.707031 449.91016 C 87.707031 472.97581 106.27614 491.54492 129.3418 491.54492 L 381.32227 491.54492 C 404.38792 491.54492 422.95703 472.97581 422.95703 449.91016 L 422.95703 118.14258 L 418.83398 122.26562 L 324.45508 27.888672 L 330.08203 22.261719 L 129.3418 22.261719 z " /><path
       id="path1"
       style="display:inline;stroke-width:2;fill:#000000"
       class="cls-1"
       d="M 123.11914 16.814453 A 39.86418 39.86418 0 0 0 83.255859 56.679688 L 83.255859 455.32031 A 39.86418 39.86418 0 0 0 123.11914 495.18555 L 388.88086 495.18555 A 39.86418 39.86418 0 0 0 428.74414 455.32031 L 428.74414 123.11914 A 6.64403 6.64403 0 0 0 428.24609 120.60938 A 6.64403 6.64403 0 0 0 428.22266 120.54883 A 6.64403 6.64403 0 0 0 426.80469 118.41406 L 327.14453 18.753906 A 6.64403 6.64403 0 0 0 327.10156 18.736328 A 6.64403 6.64403 0 0 0 322.44141 16.814453 L 123.11914 16.814453 z M 123.11914 30.103516 L 315.79688 30.103516 L 315.79688 123.11914 A 6.64403 6.64403 0 0 0 322.44141 129.76367 L 415.45703 129.76367 L 415.45703 455.32031 A 26.57612 26.57612 0 0 1 388.88086 481.89648 L 123.11914 481.89648 A 26.57612 26.57612 0 0 1 96.542969 455.32031 L 96.542969 56.679688 A 26.57612 26.57612 0 0 1 123.11914 30.103516 z M 329.08398 39.496094 L 406.0625 116.47461 L 329.08398 116.47461 L 329.08398 39.496094 z " /></g><g
     inkscape:groupmode="layer"
     id="layer2"
     inkscape:label="Nee"
     style="display:inline;stroke-width:1.67547"
     transform="matrix(0.59684826,0,0,0.59684826,196.81787,180.9129)"><g
       id="g10"
       transform="translate(-149.7267,-26.208962)"><path
         id="rect4"
         style="display:inline;fill:#15b9d4;fill-opacity:1;stroke-width:0.837734;stroke-linecap:round;stroke-linejoin:bevel;stroke-miterlimit:12;paint-order:stroke fill markers"
         d="m 132.06055,129.95508 v 5.11523 h -0.60157 v 22.25977 h 101.07618 v -22.25977 h -0.60157 v -5.11523 z M 96.564453,158.5332 V 302.32617 H 130.25586 V 158.5332 Z m 92.374997,36.48828 c -1.59089,0 -2.87109,1.28022 -2.87109,2.8711 v 9.57226 c 0,1.59088 1.2802,2.8711 2.87109,2.8711 1.59088,0 2.8711,-1.28022 2.8711,-2.8711 v -9.57226 c 0,-1.59088 -1.28022,-2.8711 -2.8711,-2.8711 z m -7.11523,4.67969 c -1.59088,0 -2.87305,1.28022 -2.87305,2.8711 v 4.89257 c 0,1.59088 1.28217,2.8711 2.87305,2.8711 1.59089,0 2.87109,-1.28022 2.87109,-2.8711 v -4.89257 c -1e-5,-1.59088 -1.2802,-2.8711 -2.87109,-2.8711 z m -7.11719,4.78516 c -1.59088,0 -2.87109,1.28216 -2.87109,2.87305 v 0.10546 c 0,1.59088 1.28021,2.8711 2.87109,2.8711 1.59089,0 2.87305,-1.28022 2.87305,-2.8711 v -0.10546 c 0,-1.59088 -1.28216,-2.87305 -2.87305,-2.87305 z" /><path
         id="rect6"
         style="display:inline;fill:#e8832f;fill-opacity:1;stroke-width:0.837734;stroke-linecap:round;stroke-linejoin:bevel;stroke-miterlimit:12;paint-order:stroke fill markers"
         d="m 232.23438,132.66211 v 25.87109 h 66.48242 v -25.87109 z m -6.20118,34.28125 c -1.59089,0 -2.87109,1.28021 -2.87109,2.87109 v 9.57227 c 0,1.59088 1.2802,2.87109 2.87109,2.87109 1.59088,0 2.8711,-1.28021 2.8711,-2.87109 v -9.57227 c 0,-1.59088 -1.28022,-2.87109 -2.8711,-2.87109 z m -7.11523,4.67969 c -1.59088,0 -2.87305,1.28021 -2.87305,2.87109 v 4.89258 c 0,1.59088 1.28217,2.87109 2.87305,2.87109 1.59089,0 2.87109,-1.28021 2.87109,-2.87109 v -4.89258 c -1e-5,-1.59088 -1.2802,-2.87109 -2.87109,-2.87109 z m -7.11719,4.78515 c -1.59088,0 -2.87109,1.28217 -2.87109,2.87305 v 0.10547 c 0,1.59088 1.28021,2.87109 2.87109,2.87109 1.59089,0 2.87305,-1.28021 2.87305,-2.87109 v -0.10547 c 0,-1.59088 -1.28216,-2.87305 -2.87305,-2.87305 z m 14.23242,18.61328 c -1.59089,0 -2.87109,1.28022 -2.87109,2.8711 v 9.57226 c 0,1.59088 1.2802,2.8711 2.87109,2.8711 1.59088,0 2.8711,-1.28022 2.8711,-2.8711 v -9.57226 c 0,-1.59088 -1.28022,-2.8711 -2.8711,-2.8711 z m -7.11523,4.67969 c -1.59088,0 -2.87305,1.28022 -2.87305,2.8711 v 4.89257 c 0,1.59088 1.28217,2.8711 2.87305,2.8711 1.59089,0 2.87109,-1.28022 2.87109,-2.8711 v -4.89257 c -1e-5,-1.59088 -1.2802,-2.8711 -2.87109,-2.8711 z m -7.11719,4.78516 c -1.59088,0 -2.87109,1.28216 -2.87109,2.87305 v 0.10546 c 0,1.59088 1.28021,2.8711 2.87109,2.8711 1.59089,0 2.87305,-1.28022 2.87305,-2.8711 v -0.10546 c 0,-1.59088 -1.28216,-2.87305 -2.87305,-2.87305 z" /><path
         id="path8-7"
         style="display:inline;fill:#0e5082;fill-opacity:1;stroke-width:0.837734;stroke-linecap:round;stroke-linejoin:bevel;stroke-miterlimit:12;paint-order:stroke fill markers"
         d="m 74.447266,132.94336 c -27.963975,20.66782 -44.509262,53.34061 -44.619141,88.11328 0.109876,34.77267 16.655163,67.44544 44.619141,88.11328 v -12.84961 c -0.0032,-0.002 -0.0066,-0.005 -0.0098,-0.008 V 145.80078 c 0.0032,-0.002 0.0066,-0.005 0.0098,-0.008 z m -9.994141,22.84961 v 130.52734 c -15.667705,-17.98391 -24.527686,-41.10197 -24.625,-65.26367 0.09732,-24.1617 8.957296,-47.27976 24.625,-65.26367 z" /><path
         id="rect2"
         style="display:inline;fill:#1a4364;fill-opacity:1;stroke-width:0.837732;stroke-linecap:round;stroke-linejoin:bevel;stroke-miterlimit:12;paint-order:stroke fill markers"
         d="m 97.009766,122.73633 c -7.580082,0 -13.681641,6.10156 -13.681641,13.68164 v 126.33594 0.0195 45.35742 h 43.289065 v 0.0371 h 5.61133 v -0.22266 h 0.006 v -31.49023 h 166.33789 c 7.58008,0 13.68164,-6.10156 13.68164,-13.68164 V 136.41797 c 0,-7.58008 -6.10156,-13.68164 -13.68164,-13.68164 z m 137.042964,10.58008 h 29.14063 v 22.4414 h -29.14063 z m -67.50781,0.12695 h 29.14063 v 22.44141 h -29.14063 z m 34.17188,0.125 h 29.14258 v 22.44141 H 200.7168 Z M 98.826172,133.68164 H 127.9668 v 22.43945 H 98.826172 Z m 33.740238,0 h 29.14257 v 22.43945 h -29.14257 z m 135.38476,0.41992 h 29.14063 v 22.44141 h -29.14063 z m -33.78906,26.73242 h 29.14258 v 22.44336 h -29.14258 z m -67.50781,0.12891 h 29.14258 v 22.43945 H 166.6543 Z m 34.17382,0.125 h 29.14063 v 22.43945 h -29.14063 z m -101.892573,0.11328 h 29.142573 v 22.43945 H 98.935547 Z m 33.742183,0 h 29.14063 v 22.43945 h -29.14063 z m 135.38282,0.41992 h 29.14257 v 22.44141 h -29.14257 z m -33.94336,27.33594 h 29.14062 v 22.43945 h -29.14062 z m -67.50781,0.12695 h 29.14257 v 22.44336 h -29.14257 z m 34.17187,0.125 h 29.14258 v 22.44336 H 200.78125 Z M 98.890625,189.32422 H 128.0332 v 22.4414 H 98.890625 Z m 33.740235,0 h 29.14258 v 22.4414 h -29.14258 z m 135.38476,0.41601 h 29.14258 v 22.44336 h -29.14258 z m -33.98242,27.81641 h 29.14063 v 22.43945 H 234.0332 Z m -67.50781,0.12695 h 29.14258 V 240.125 h -29.14258 z m 34.17188,0.125 h 29.14257 V 240.25 h -29.14257 z m -101.890629,0.11329 h 29.140629 v 22.4414 H 98.806641 Z m 33.740239,0 h 29.14257 v 22.4414 h -29.14257 z m 135.38476,0.41796 h 29.14063 v 22.44141 h -29.14063 z m -33.83398,27.47852 h 29.14062 v 22.43945 h -29.14062 z m -67.50782,0.12695 h 29.14258 v 22.44141 h -29.14258 z m 34.17188,0.125 h 29.14258 v 22.44141 H 200.76172 Z M 98.871094,246.18359 H 128.01367 V 268.625 H 98.871094 Z m 33.740236,0 h 29.14258 V 268.625 h -29.14258 z m 135.38476,0.41797 h 29.14258 v 22.44141 H 267.99609 Z M 98.378906,275.11133 h 29.142574 v 1.34375 h 0.0332 v 21.10547 h -0.0371 v -0.008 H 98.378906 Z" /><path
         id="path7"
         style="display:inline;fill:#165785;fill-opacity:1;stroke-width:0.837734;stroke-linecap:round;stroke-linejoin:bevel;stroke-miterlimit:12;paint-order:stroke fill markers"
         d="m 246.06055,82.453125 a 120,120 0 0 0 -82.9375,33.664065 h 15.17187 a 110,110 0 0 1 67.76563,-23.664065 110,110 0 0 1 110,109.999995 110,110 0 0 1 -38.83399,83.39063 l 7.2168,7.2168 a 120,120 0 0 0 41.61719,-90.60743 120,120 0 0 0 -120,-119.999995 z" /><path
         id="rect7"
         style="display:inline;fill:#1a4364;fill-opacity:1;stroke-width:0.837734;stroke-linecap:round;stroke-linejoin:bevel;stroke-miterlimit:12;paint-order:stroke fill markers"
         d="m 243.39453,60.734375 c -4.83301,0 -8.72265,3.891594 -8.72265,8.724609 v 40.912106 c -10e-6,4.83302 3.88964,8.72266 8.72265,8.72266 4.83302,0 8.72461,-3.88964 8.72461,-8.72266 V 69.458984 c 0,-4.833015 -3.89159,-8.724609 -8.72461,-8.724609 z m 87.79492,146.833985 c -4.83301,0 -8.72461,3.88964 -8.72461,8.72266 0,4.83301 3.8916,8.7246 8.72461,8.7246 h 40.91211 c 4.83302,10e-6 8.72266,-3.89159 8.72266,-8.7246 0,-4.83302 -3.88964,-8.72266 -8.72266,-8.72266 z" /><rect
         style="display:inline;fill:#165785;fill-opacity:1;stroke-width:0.968197;stroke-linecap:round;stroke-linejoin:bevel;stroke-miterlimit:12;paint-order:stroke fill markers"
         id="rect8"
         width="59.422028"
         height="15.362099"
         x="422.94778"
         y="334.8378"
         ry="7.6810493"
         transform="matrix(0.84481181,0,0,0.88618589,-347.73916,-81.887712)" /><path
         id="text9"
         style="font-weight:900;font-size:133.333px;line-height:0px;font-family:Roboto;-inkscape-font-specification:'Roboto Heavy';text-align:center;letter-spacing:0px;word-spacing:0.09px;writing-mode:lr-tb;direction:rtl;text-anchor:middle;white-space:pre;shape-inside:url(#rect9);fill:#0e3356;fill-opacity:1;stroke-width:0.837734;stroke-linecap:round;stroke-linejoin:bevel;stroke-miterlimit:12;paint-order:stroke fill markers"
         d="m 319.79659,240.46977 c -5.20832,0 -9.98302,0.62623 -14.32328,1.88491 -4.34027,1.21527 -8.11397,2.99681 -11.32577,5.34055 -3.2118,2.30034 -5.70774,5.07632 -7.48725,8.33152 -1.77951,3.2552 -2.67027,6.90318 -2.67027,10.93963 0,4.16666 0.84667,7.81136 2.53938,10.93635 1.7361,3.125 4.09977,5.86016 7.09455,8.20391 2.99479,2.34374 6.40354,4.40532 10.22298,6.18483 3.86283,1.7361 7.91985,3.29719 12.17332,4.68607 3.73263,1.17187 6.75111,2.32391 9.05145,3.45238 2.30034,1.08507 4.0786,2.1677 5.33728,3.25277 1.25868,1.08506 2.1274,2.28119 2.60483,3.58327 0.47743,1.25868 0.71665,2.69076 0.71665,4.29666 0,1.90972 -0.47845,3.64389 -1.43331,5.20638 -0.95486,1.5625 -2.43103,2.79945 -4.42755,3.7109 -1.95312,0.86806 -4.51192,1.30242 -7.68032,1.30242 -2.73437,0 -5.20826,-0.258 -7.4218,-0.77883 -2.21353,-0.52083 -4.10202,-1.38956 -5.66452,-2.60483 -1.51909,-1.21528 -2.69318,-2.80168 -3.51783,-4.7548 -0.82465,-1.99652 -1.23696,-4.42632 -1.23696,-7.2909 h -21.2215 c 0,5.46874 1.10467,10.19935 3.31821,14.19239 2.25694,3.94964 5.25337,7.20408 8.986,9.76484 3.77604,2.56075 7.9841,4.47129 12.62819,5.72997 4.64408,1.21527 9.35592,1.82272 14.13021,1.82272 5.25172,0 10.00438,-0.5854 14.25784,-1.75728 4.25346,-1.17187 7.89817,-2.88727 10.93635,-5.14421 3.08159,-2.30034 5.42649,-5.07632 7.03239,-8.33152 1.6493,-3.2552 2.47393,-6.98809 2.47393,-11.19815 0,-3.94964 -0.69563,-7.48739 -2.08452,-10.61238 -1.34548,-3.125 -3.36297,-5.92302 -6.05394,-8.39698 -2.69096,-2.47395 -6.01153,-4.68984 -9.96117,-6.64296 -3.90624,-1.95312 -8.39763,-3.73139 -13.47574,-5.33728 -2.90798,-0.86806 -5.4921,-1.78087 -7.74904,-2.73573 -2.25694,-0.95486 -4.16747,-1.95258 -5.72997,-2.99424 -1.51909,-1.08507 -2.6899,-2.23384 -3.51455,-3.44911 -0.78125,-1.25868 -1.17152,-2.64667 -1.17152,-4.16576 0,-1.90972 0.51927,-3.66921 1.56093,-5.27511 1.08507,-1.6059 2.67147,-2.86489 4.7548,-3.77635 2.12673,-0.95485 4.75167,-1.43331 7.87666,-1.43331 3.2118,0 5.88083,0.56664 8.00756,1.69511 2.17013,1.12846 3.7753,2.68955 4.81697,4.68607 1.08506,1.95312 1.62965,4.20983 1.62965,6.77059 h 21.09388 c 0,-5.81596 -1.47617,-10.91479 -4.42756,-15.29846 -2.95138,-4.42707 -7.07453,-7.8546 -12.36966,-10.28515 -5.25172,-2.47395 -11.35155,-3.7109 -18.29598,-3.7109 z m 275.51955,0 c -6.03298,0 -11.54412,1.08263 -16.53543,3.25277 -4.99131,2.12673 -9.3096,5.20807 -12.95542,9.24452 -3.60243,4.03645 -6.40045,8.94342 -8.39698,14.71598 -1.99652,5.72915 -2.99751,12.19393 -2.99751,19.39877 v 4.23121 c 0,7.20484 1.00099,13.6729 2.99751,19.40205 1.99653,5.72915 4.8166,10.6108 8.46242,14.64725 3.68923,4.03645 8.02957,7.13984 13.02087,9.30997 4.99131,2.12673 10.50246,3.19059 16.53543,3.19059 6.03297,0 11.52535,-1.06386 16.47325,-3.19059 4.99131,-2.17013 9.28756,-5.27352 12.88998,-9.30997 3.64582,-4.03645 6.44385,-8.9181 8.39697,-14.64725 1.99652,-5.72915 2.99424,-12.19721 2.99424,-19.40205 v -4.23121 c 0,-7.20484 -0.99772,-13.66962 -2.99424,-19.39877 -1.99652,-5.77256 -4.8166,-10.67953 -8.46242,-14.71598 -3.60242,-4.03645 -7.89867,-7.11779 -12.88998,-9.24452 -4.9913,-2.17014 -10.50572,-3.25277 -16.53869,-3.25277 z m -227.99451,1.29915 v 94.79155 h 21.22477 v -38.41141 h 37.30534 V 281.74453 H 388.5464 v -23.50236 h 41.4711 v -16.47325 h -41.4711 z m 73.04974,0 v 94.79155 h 21.2215 v -24.54299 l -2.1107,-44.67805 24.24847,69.22104 h 14.25784 l 24.24519,-69.21776 -2.11069,44.67477 v 24.54299 h 21.28694 V 241.76892 H 531.19023 513.6109 l -22.72025,67.77463 -22.78571,-67.77463 h -9.83028 z m 154.94477,15.43263 c 3.08158,0 5.8388,0.64826 8.26934,1.95034 2.43055,1.25868 4.47009,3.14717 6.11939,5.66453 1.6493,2.51735 2.90829,5.64279 3.77635,9.37542 0.86805,3.68922 1.30241,7.94138 1.30241,12.75907 v 4.36211 c 0,4.77429 -0.43436,9.02972 -1.30241,12.76235 -0.82465,3.68923 -2.0616,6.81467 -3.7109,9.37542 -1.6493,2.56076 -3.68884,4.49007 -6.11939,5.79215 -2.38714,1.30208 -5.12231,1.95362 -8.2039,1.95362 -3.2118,0 -6.03187,-0.65154 -8.46242,-1.95362 -2.38715,-1.30208 -4.40463,-3.23139 -6.05394,-5.79215 -1.6493,-2.56075 -2.90829,-5.68619 -3.77634,-9.37542 -0.82465,-3.73263 -1.23697,-7.98806 -1.23697,-12.76235 v -4.36211 c 0,-4.81769 0.41232,-9.06985 1.23697,-12.75907 0.86805,-3.73263 2.105,-6.85807 3.7109,-9.37542 1.6493,-2.51736 3.66679,-4.40585 6.05393,-5.66453 2.38715,-1.30208 5.18518,-1.95034 8.39698,-1.95034 z m -10.72692,96.03178 c -2.4132,0 -4.62027,0.43436 -6.61679,1.30242 -1.99653,0.85069 -3.72188,2.08323 -5.18021,3.69781 -1.44097,1.61458 -2.56214,3.57474 -3.36075,5.88377 -0.79861,2.29167 -1.1977,4.88018 -1.1977,7.76213 v 1.69183 c 0,2.88194 0.39909,5.47046 1.1977,7.76213 0.79861,2.29166 1.9286,4.24301 3.38693,5.85759 1.47569,1.61458 3.20986,2.85593 5.20638,3.72399 1.99653,0.85069 4.2036,1.27623 6.61679,1.27623 2.4132,0 4.60817,-0.42554 6.58734,-1.27623 1.99653,-0.86806 3.71633,-2.10941 5.1573,-3.72399 1.45833,-1.61458 2.57623,-3.56593 3.35748,-5.85759 0.79861,-2.29167 1.1977,-4.88019 1.1977,-7.76213 v -1.69183 c 0,-2.88195 -0.39909,-5.47046 -1.1977,-7.76213 -0.79861,-2.30903 -1.92533,-4.26919 -3.38366,-5.88377 -1.44097,-1.61458 -3.16077,-2.84712 -5.1573,-3.69781 -1.99653,-0.86806 -4.20032,-1.30242 -6.61351,-1.30242 z m -127.50244,0.52032 v 37.91727 h 8.49187 17.29135 v -6.56116 h -17.29135 v -9.74193 h 14.68652 v -6.35172 h -14.68652 v -8.67186 h 17.31753 v -6.5906 h -17.31753 z m 29.9228,0 v 37.91727 h 8.4886 3.51783 c 2.55208,0 4.88488,-0.43436 7.00293,-1.30241 2.11806,-0.86806 3.95249,-2.10059 5.49763,-3.69781 1.5625,-1.61459 2.76858,-3.52511 3.61927,-5.72997 0.8507,-2.22222 1.27624,-4.67847 1.27624,-7.36944 v -1.69183 c 0,-2.70833 -0.42554,-5.16458 -1.27624,-7.36944 -0.85069,-2.20486 -2.05677,-4.11539 -3.61927,-5.72997 -1.54514,-1.61458 -3.38839,-2.85594 -5.52381,-3.72399 -2.11805,-0.86806 -4.45967,-1.30241 -7.02911,-1.30241 h -3.46547 z m 35.15537,0 v 37.91727 h 8.4657 v -37.91727 z m 12.42202,0 v 6.5906 h 11.30287 v 31.32667 h 8.46242 v -31.32667 h 11.53847 v -6.5906 z m 71.5379,0 v 37.91727 h 8.4886 v -13.69826 h 5.57943 l 6.92113,13.69826 h 9.08744 v -0.38942 l -8.08282,-15.41299 c 1.04879,-0.48825 2.00367,-1.05938 2.85026,-1.72455 1.23264,-0.95486 2.18627,-2.16094 2.86335,-3.61928 0.67708,-1.45833 1.01771,-3.22776 1.01771,-5.3111 0,-2.5 -0.57544,-4.60125 -1.72128,-6.30264 -1.14583,-1.70138 -2.78627,-2.98683 -4.92168,-3.85488 -2.11806,-0.86806 -4.62721,-1.30241 -7.52652,-1.30241 z m -21.53565,6.17174 c 1.23263,0 2.3329,0.26127 3.30512,0.7821 0.97222,0.50347 1.78803,1.25756 2.44775,2.2645 0.65972,1.00694 1.16463,2.25711 1.51185,3.75017 0.34722,1.47569 0.52031,3.17786 0.52031,5.10494 v 1.74419 c 0,1.90972 -0.17309,3.61188 -0.52031,5.10494 -0.32986,1.47569 -0.82595,2.72586 -1.48567,3.75017 -0.65972,1.0243 -1.47553,1.79602 -2.44775,2.31685 -0.95486,0.52084 -2.04631,0.78211 -3.27895,0.78211 -1.28472,0 -2.41471,-0.26127 -3.38693,-0.78211 -0.95486,-0.52083 -1.76185,-1.29255 -2.42157,-2.31685 -0.65972,-1.02431 -1.16463,-2.27448 -1.51185,-3.75017 -0.32986,-1.49306 -0.49413,-3.19522 -0.49413,-5.10494 v -1.74419 c 0,-1.92708 0.16427,-3.62925 0.49413,-5.10494 0.34722,-1.49306 0.84331,-2.74323 1.48567,-3.75017 0.65972,-1.00694 1.46671,-1.76103 2.42157,-2.2645 0.95486,-0.52083 2.07603,-0.7821 3.36076,-0.7821 z m -89.09104,0.41886 h 3.46547 c 1.42361,0 2.6826,0.24037 3.77635,0.72648 1.11111,0.48611 2.03828,1.21701 2.78481,2.18923 0.74653,0.97222 1.31316,2.1783 1.6951,3.61927 0.38195,1.42361 0.57267,3.07287 0.57267,4.94787 v 1.74419 c 0,2.48263 -0.34063,4.5927 -1.01771,6.32881 -0.67709,1.71875 -1.66599,3.02183 -2.96807,3.90725 -1.30208,0.86805 -2.89843,1.30241 -4.79079,1.30241 h -3.51783 z m 119.11529,0 h 6.06702 c 1.25,0 2.29181,0.22273 3.12514,0.67412 0.8507,0.43403 1.49342,1.06793 1.92744,1.90126 0.43403,0.83333 0.65121,1.82551 0.65121,2.97134 0,1.11111 -0.21718,2.08237 -0.65121,2.91571 -0.41666,0.81597 -1.04175,1.44987 -1.87508,1.90126 -0.83333,0.45139 -1.88396,0.67739 -3.15132,0.67739 h -6.0932 z"
         transform="translate(-148.0047,56.554642)" /></g></g></svg>
